<svg preserveAspectRatio="none" width="100%" height="100%" overflow="visible" style="display: block;" viewBox="0 0 15.2443 14.4835" fill="none" xmlns="http://www.w3.org/2000/svg">
<g id="icon">
<path id="Fill 55" d="M3.98925 5.53541C4.13821 5.53541 4.31207 5.53344 4.45604 5.54908C4.59305 5.56397 4.86911 5.6077 5.09667 5.83033C5.32751 6.0562 5.37469 6.33468 5.39061 6.47486C5.40694 6.61894 5.40526 6.79231 5.40526 6.93678V12.6253C5.40526 12.6823 5.40933 12.8414 5.37987 12.9846C5.33691 13.1936 5.21293 13.4467 4.92968 13.5999C4.73001 13.7077 4.51861 13.7219 4.41991 13.7278C4.2982 13.7351 4.14613 13.7346 3.98925 13.7346H2.16503C1.39848 13.7346 0.749249 13.1225 0.749012 12.3333V6.93678C0.749012 6.14725 1.39844 5.53541 2.16503 5.53541H3.98925Z" stroke="var(--stroke-0, #191919)" stroke-width="1.49706"/>
<g id="Fill 57">
<mask id="path-2-outside-1_0_154" maskUnits="userSpaceOnUse" x="4.08698" y="-0.503654" width="12" height="15" fill="black">
<rect fill="white" x="4.08698" y="-0.503654" width="12" height="15"/>
<path fill-rule="evenodd" clip-rule="evenodd" d="M12.7886 6.18248H10.3253C10.3253 6.18248 10.793 5.66893 10.793 4.22472C10.793 2.78045 10.0165 1.9876 9.11097 1.59298C8.35617 1.26405 7.96232 1.84173 7.96232 2.32311C7.96232 2.77042 7.89853 4.75561 6.44807 5.92926C6.22521 6.10954 6.08975 6.37285 6.08698 6.65566L6.09218 12.3691C6.08885 12.7091 6.36982 12.9865 6.71754 12.9865H10.5944C11.4034 12.9865 12.148 12.5584 12.5451 11.8691C13.419 10.3528 13.6732 8.35234 13.7453 7.17293C13.7782 6.63514 13.3396 6.18248 12.7886 6.18248"/>
</mask>
<path d="M10.3253 6.18248L9.21848 5.17449L6.9372 7.67953H10.3253V6.18248ZM9.11097 1.59298L8.51289 2.96538L8.5129 2.96539L9.11097 1.59298ZM6.44807 5.92926L7.38961 7.09317L7.38976 7.09305L6.44807 5.92926ZM6.08698 6.65566L4.58999 6.641L4.58992 6.64901L4.58992 6.65702L6.08698 6.65566ZM6.09218 12.3691L7.58916 12.3837L7.58924 12.3757L7.58923 12.3677L6.09218 12.3691ZM12.5451 11.8691L11.2481 11.1216L11.248 11.1217L12.5451 11.8691ZM13.7453 7.17293L12.2511 7.08153L12.2511 7.08159L13.7453 7.17293ZM12.7886 6.18248V4.68542H10.3253V6.18248V7.67953H12.7886V6.18248ZM10.3253 6.18248C11.4322 7.19046 11.4329 7.18971 11.4336 7.18894C11.4338 7.18869 11.4345 7.18792 11.435 7.18741C11.4359 7.18638 11.4369 7.18534 11.4378 7.18429C11.4397 7.18219 11.4416 7.18006 11.4435 7.17788C11.4474 7.17352 11.4514 7.169 11.4555 7.16432C11.4636 7.15496 11.4722 7.14494 11.4811 7.13427C11.4989 7.11291 11.518 7.08891 11.5383 7.06218C11.5789 7.00867 11.6237 6.9444 11.6707 6.86858C11.765 6.71648 11.8664 6.52049 11.9593 6.2751C12.146 5.78176 12.2901 5.111 12.2901 4.22472H10.793H9.29596C9.29596 4.78265 9.20617 5.09076 9.15905 5.21525C9.135 5.27878 9.11947 5.30143 9.12609 5.29076C9.12926 5.28565 9.13758 5.27278 9.15258 5.253C9.16007 5.24312 9.16919 5.23158 9.18012 5.21844C9.18558 5.21188 9.1915 5.20493 9.19788 5.1976C9.20108 5.19393 9.20439 5.19017 9.20782 5.18632C9.20954 5.18439 9.21128 5.18244 9.21306 5.18047C9.21395 5.17949 9.21484 5.17849 9.21575 5.1775C9.2162 5.177 9.21688 5.17624 9.21711 5.176C9.21779 5.17524 9.21848 5.17449 10.3253 6.18248ZM10.793 4.22472H12.2901C12.2901 3.21898 12.0143 2.34777 11.5077 1.64217C11.0102 0.949133 10.3516 0.500568 9.70903 0.22057L9.11097 1.59298L8.5129 2.96539C8.77595 3.08002 8.95836 3.22518 9.07546 3.38829C9.18354 3.53884 9.29596 3.78618 9.29596 4.22472H10.793ZM9.11097 1.59298L9.70905 0.220576C8.89443 -0.134422 7.98101 -0.0774336 7.28545 0.512298C6.69548 1.0125 6.46526 1.73041 6.46526 2.32311H7.96232H9.45938C9.45938 2.43443 9.42608 2.6228 9.22174 2.79605C9.10173 2.8978 8.94366 2.97069 8.77352 2.98903C8.61092 3.00656 8.51518 2.96638 8.51289 2.96538L9.11097 1.59298ZM7.96232 2.32311H6.46526C6.46526 2.47826 6.45327 2.93367 6.30834 3.44718C6.16281 3.96284 5.91251 4.43685 5.50638 4.76547L6.44807 5.92926L7.38976 7.09305C8.4341 6.24801 8.94092 5.14261 9.1899 4.26043C9.43948 3.37611 9.45938 2.61527 9.45938 2.32311H7.96232ZM6.44807 5.92926L5.50654 4.76534C4.96211 5.20575 4.59746 5.87925 4.58999 6.641L6.08698 6.65566L7.58397 6.67032C7.58205 6.86644 7.48832 7.01332 7.38961 7.09317L6.44807 5.92926ZM6.08698 6.65566L4.58992 6.65702L4.59512 12.3705L6.09218 12.3691L7.58923 12.3677L7.58404 6.6543L6.08698 6.65566ZM6.09218 12.3691L4.59519 12.3545C4.58341 13.559 5.56966 14.4835 6.71754 14.4835V12.9865V11.4894C7.16997 11.4894 7.59429 11.8593 7.58916 12.3837L6.09218 12.3691ZM6.71754 12.9865V14.4835H10.5944V12.9865V11.4894H6.71754V12.9865ZM10.5944 12.9865V14.4835C11.9309 14.4835 13.1739 13.7764 13.8423 12.6165L12.5451 11.8691L11.248 11.1217C11.122 11.3404 10.876 11.4894 10.5944 11.4894V12.9865ZM12.5451 11.8691L13.8422 12.6166C14.8982 10.7843 15.1648 8.48856 15.2396 7.26427L13.7453 7.17293L12.2511 7.08159C12.1817 8.21612 11.9398 9.92139 11.2481 11.1216L12.5451 11.8691ZM13.7453 7.17293L15.2396 7.26434C15.3276 5.82586 14.1623 4.68542 12.7886 4.68542V6.18248V7.67953C12.517 7.67953 12.2289 7.44442 12.2511 7.08153L13.7453 7.17293Z" fill="var(--stroke-0, #191919)" mask="url(#path-2-outside-1_0_154)"/>
</g>
</g>
</svg>
