<svg preserveAspectRatio="none" width="100%" height="100%" overflow="visible" style="display: block;" viewBox="0 0 24 24" fill="none" xmlns="http://www.w3.org/2000/svg">
<path d="M12 4C16.4183 4 20 7.58172 20 12C20 16.4183 16.4183 20 12 20C7.58172 20 4 16.4183 4 12C4 7.58172 7.58172 4 12 4ZM14.793 9.20703C14.5196 8.93379 14.0761 8.9337 13.8027 9.20703L12 11.0098L10.1963 9.20703C9.9229 8.9339 9.47934 8.93374 9.20605 9.20703C8.93321 9.48035 8.93307 9.92403 9.20605 10.1973L11.0098 12L9.20605 13.8027C8.93309 14.076 8.93324 14.5196 9.20605 14.793C9.47934 15.0663 9.9229 15.0661 10.1963 14.793L12 12.9902L13.8027 14.793C14.0761 15.0663 14.5196 15.0662 14.793 14.793C15.0662 14.5196 15.0663 14.0761 14.793 13.8027L12.9902 12L14.793 10.1973C15.0663 9.92395 15.0662 9.48041 14.793 9.20703Z" fill="#888888"/>
</svg>
